<?xml version="1.0" encoding="utf-8"?>
<!-- Generator: Adobe Illustrator 24.1.3, SVG Export Plug-In . SVG Version: 6.00 Build 0)  -->
<svg version="1.1" id="Layer_1" xmlns="http://www.w3.org/2000/svg" xmlns:xlink="http://www.w3.org/1999/xlink" x="0px" y="0px"
	 viewBox="0 0 512 512" style="enable-background:new 0 0 512 512;" xml:space="preserve">
<style type="text/css">
	.st0{fill:#339FB0;}
	.st1{fill:url(#SVGID_1_);}
</style>
<path class="st0" d="M158.8,114c-0.6-7,0.6-14.6,5.1-20.3c6.3-8.9,16.5-12.7,26.7-11.4l35.6,4.4l114.3,14.6
	c-5.7-13.3-14-25.4-22.9-34.9c-13.3-13.3-29.8-21-45.1-19.7C249.6,48,142.9,55,111.8,57.5C87,59.4,61,60.7,33.7,62.6
	c-9.5,0.6-14.6,9.5-12.1,17.1c21,60.3,41.3,118.1,61,174.6c19,54,36.8,106,54.6,156.8c1.9,5.1,8.9,5.7,11.4,0.6
	c11.4-21.6,22.2-41.9,33.7-61.6L158.8,114z"/>
<linearGradient id="SVGID_1_" gradientUnits="userSpaceOnUse" x1="173.8794" y1="230.5077" x2="495.2946" y2="230.5077" gradientTransform="matrix(1 0 0 -1 0 514)">
	<stop  offset="0" style="stop-color:#FF6600"/>
	<stop  offset="1" style="stop-color:#F3AB1D"/>
</linearGradient>
<path class="st1" d="M272.4,303.2c-2.5,0-4.4-1.9-4.4-4.4c-0.6-6.3-0.6-12.7-1.3-19.7c0-2.5,1.3-4.4,3.8-4.4
	c32.4-0.6,62.9-0.6,91.4-1.3c26.7-0.6,50.8-0.6,74.3-0.6c1.3,0,2.5,1.9,2.5,3.8c0,5.1,0,10.2,0.6,15.9c0,1.9-1.3,3.8-2.5,3.8
	c-22.9,1.3-47.6,1.9-73.6,3.2C335.3,300.7,304.8,301.9,272.4,303.2 M262.9,228.9c-0.6-6.3-0.6-13.3-1.3-19.7c0-2.5,1.3-4.4,3.8-4.4
	c33,2.5,64.1,4.4,92.7,6.3c26.7,1.9,52.1,3.8,75.6,5.1c1.3,0,2.5,1.9,2.5,3.8c0,5.1,0,10.8,0.6,15.9c0,1.9-1.3,3.8-2.5,3.8
	c-23.5-0.6-48.3-1.9-74.9-2.5c-28.6-1.3-59-1.9-92.1-3.2C264.8,233.4,262.9,231.5,262.9,228.9 M429.9,129.2l-206.3-26.7
	c-11.4-1.3-23.5-3.2-35.6-4.4c-8.3-1.3-15.2,5.7-14,14c6.3,63.5,12.1,124.4,18.4,184.1c5.7,57.1,11.4,113,16.5,167
	c0.6,5.7,7,7.6,10.8,3.8c20.3-22.2,40-43.8,59-64.8c5.1-5.7,12.1-8.9,19-9.5c5.7-0.6,17.1-1.9,31.7-3.8l0,0l100.3-13.3
	c37.5-5.1,65.4-37.5,65.4-75.6v-95.2C495.3,166.7,467.4,134.3,429.9,129.2"/>
</svg>
